#!OML:ASF F:\VICON\USERDATA\INSTALL\rory3\rory3.ASF
:FULLY-SPECIFIED
:DEGREES
1439
root -1.00874 14.7874 20.6469 170.937 -6.12496 133.019
lowerback -22.3216 -7.58377 4.61756
upperback -13.8998 -12.9953 2.81977
thorax -3.37478 -7.50914 -1.83919
lowerneck -5.19115 -15.7593 -16.969
upperneck 36.042 -12.1422 -12.615
head 13.8317 -7.40824 -3.6035
rclavicle -1.78111e-013 3.4668e-013
rhumerus -13.6127 -30.5717 24.0006
rradius 35.0436
rwrist -5.48697
rhand -18.3874 -47.1458
rfingers 7.12502
rthumb -172.104 463.022
lclavicle -1.78111e-013 3.4668e-013
lhumerus -7.88108 19.8026 4.63276
lradius 23.2666
lwrist 35.0663
lhand -33.8076 -12.9937
lfingers 7.12502
lthumb -6.99388 16.8708
rfemur -34.6456 -0.261157 32.2598
rtibia 60.2084
rfoot -1.78791 -22.3861
rtoes 28.0131
lfemur -5.12866 38.0024 -12.3984
ltibia 99.5353
lfoot 5.07699 -5.42219
ltoes 1.8623
1440
root -1.001 14.7878 20.6792 171.898 -7.29204 132.943
lowerback -22.5415 -7.50459 4.21906
upperback -13.5418 -12.7013 2.30445
thorax -2.88759 -7.31517 -2.20878
lowerneck -6.09037 -16.4265 -15.7217
upperneck 36.3837 -13.1184 -12.8809
head 13.9768 -7.74112 -4.10327
rclavicle 1.55847e-013 -3.65764e-013
rhumerus -15.7063 -30.367 25.1886
rradius 35.0016
rwrist -5.30282
rhand -18.3679 -47.0117
rfingers 7.12502
rthumb -172.085 463.157
lclavicle 1.55847e-013 -3.65764e-013
lhumerus -5.80595 22.0133 5.57153
lradius 22.6888
lwrist 33.1121
lhand -33.0528 -12.8747
lfingers 7.12502
lthumb -6.26518 17.0127
rfemur -34.8184 -0.798011 32.2563
rtibia 59.9596
rfoot -1.63141 -22.4234
rtoes 28.3263
lfemur -5.42061 37.2712 -12.7733
ltibia 99.5445
lfoot 5.15502 -5.25383
ltoes 1.40417
1441
root -1.00371 14.7696 20.7407 172.694 -6.90541 132.66
lowerback -22.4234 -7.65123 4.41498
upperback -14.1956 -13.0906 2.92182
thorax -3.59832 -7.57122 -1.62174
lowerneck -4.44098 -15.7243 -17.5191
upperneck 35.5783 -12.2469 -12.2573
head 13.5648 -7.43863 -3.30752
rclavicle -1.66979e-014 1.49486e-013
rhumerus -13.1346 -30.5068 23.5159
rradius 34.7228
rwrist -4.73118
rhand -18.1544 -47.1188
rfingers 7.12502
rthumb -171.879 463.057
lclavicle -1.66979e-014 1.49486e-013
lhumerus -7.94088 22.9016 4.41097
lradius 22.4081
lwrist 31.1535
lhand -32.0202 -12.7536
lfingers 7.12502
lthumb -5.26824 17.1609
rfemur -34.9464 -0.133299 32.3874
rtibia 59.8004
rfoot -0.73191 -22.3304
rtoes 29.8904
lfemur -5.12292 38.0619 -12.7151
ltibia 99.5793
lfoot 5.2276 -5.20446
ltoes 1.52187
1442
root -1.00382 14.7548 20.7933 173.484 -7.02038 132.416
lowerback -22.0998 -7.35741 4.07914
upperback -14.0483 -12.5965 2.80411
thorax -3.5099 -7.2994 -1.4617
lowerneck -4.9802 -16.0959 -17.207
upperneck 35.5287 -12.8665 -12.0121
head 13.6296 -7.66988 -3.38636
rclavicle -3.10104e-014 -2.8625e-014
rhumerus -14.2793 -30.5302 24.3598
rradius 34.7482
rwrist -4.81668
rhand -18.0764 -47.1559
rfingers 7.12502
rthumb -171.803 463.023
lclavicle -3.10104e-014 -2.8625e-014
lhumerus -7.1478 22.8482 4.91613
lradius 22.4364
lwrist 31.5034
lhand -32.0933 -12.7967
lfingers 7.12502
lthumb -5.33882 17.116
rfemur -34.8711 0.122366 32.3961
rtibia 59.5575
rfoot -0.72688 -22.2329
rtoes 30.2466
lfemur -4.88649 38.293 -12.7654
ltibia 99.5936
lfoot 5.52048 -4.80876
ltoes 4.72865
1443
root -1.0117 14.7445 20.8425 174.229 -7.19374 132.304
lowerback -21.7599 -7.29892 4.02345
upperback -14.3298 -12.5583 3.02395
thorax -3.925 -7.30012 -1.10249
lowerneck -4.60434 -16.0314 -17.6795
upperneck 35.2017 -12.8349 -11.8097
head 13.4851 -7.66818 -3.18962
rclavicle -5.725e-014 6.67916e-014
rhumerus -13.8464 -29.9461 24.2719
rradius 34.8004
rwrist -5.39508
rhand -18.0663 -47.2091
rfingers 7.12502
rthumb -171.794 462.97
lclavicle -5.725e-014 6.67916e-014
lhumerus -7.92539 21.2316 4.55162
lradius 22.7471
lwrist 32.6661
lhand -32.5696 -12.9559
lfingers 7.12502
lthumb -5.79873 16.9447
rfemur -34.6202 0.277667 32.4676
rtibia 59.2462
rfoot -1.18288 -22.0154
rtoes 27.6374
lfemur -4.64154 38.4525 -12.7275
ltibia 99.6381
lfoot 5.91134 -4.13721
ltoes 8.76568
1444
root -1.01258 14.7529 20.8726 174.996 -9.23674 132.522
lowerback -22.4869 -7.87673 4.25569
upperback -14.0466 -13.2051 2.72888
thorax -3.42413 -7.58167 -1.79096
lowerneck -4.76562 -16.0612 -17.5334
upperneck 35.0582 -12.9963 -11.517
head 13.4552 -7.70393 -3.12171
rclavicle -1.24042e-013 0
rhumerus -14.128 -30.4081 24.0589
rradius 34.6839
rwrist -5.1763
rhand -17.9033 -47.2991
rfingers 7.12502
rthumb -171.636 462.886
lclavicle -1.24042e-013 0
lhumerus -7.70952 22.4939 4.26912
lradius 22.556
lwrist 31.4105
lhand -32.3743 -13.3377
lfingers 7.12502
lthumb -5.61012 16.568
rfemur -34.5348 -1.0139 32.7073
rtibia 58.8975
rfoot -1.72439 -22.2008
rtoes 28.38
lfemur -5.13191 36.8676 -12.9002
ltibia 99.8039
lfoot 6.00921 -4.13271
ltoes 7.4942
1445
root -1.00882 14.7279 20.9225 175.805 -8.94483 132.297
lowerback -22.5307 -7.48974 4.32184
upperback -13.7766 -12.6754 2.50219
thorax -3.13072 -7.31644 -2.01773
lowerneck -5.155 -16.2465 -17.0034
upperneck 34.9728 -13.3769 -11.3852
head 13.4361 -7.81558 -3.21504
rclavicle 5.32743e-014 1.74931e-013
rhumerus -14.975 -31.1046 24.3821
rradius 34.571
rwrist -4.63939
rhand -17.7906 -47.1943
rfingers 7.12502
rthumb -171.528 462.996
lclavicle 5.32743e-014 1.74931e-013
lhumerus -7.0639 22.6972 4.25768
lradius 22.5985
lwrist 31.4168
lhand -32.1208 -13.6295
lfingers 7.12502
lthumb -5.3654 16.2825
rfemur -34.4647 -0.189004 32.8332
rtibia 58.5697
rfoot -1.5385 -22.1865
rtoes 27.5985
lfemur -4.81889 37.6122 -12.6554
ltibia 99.8937
lfoot 5.20094 -5.47193
ltoes 1.35667
1446
root -1.01258 14.7048 20.9725 176.712 -9.03952 132.235
lowerback -22.5496 -7.20261 4.41749
upperback -13.7154 -12.3216 2.3926
thorax -3.0731 -7.15612 -2.13202
lowerneck -5.33772 -16.3905 -16.6394
upperneck 34.7023 -13.7023 -11.3398
head 13.3088 -7.92299 -3.27972
rclavicle -3.65764e-014 1.90833e-014
rhumerus -15.6295 -31.1098 24.7897
rradius 34.5616
rwrist -4.6806
rhand -17.6669 -47.2301
rfingers 7.12502
rthumb -171.408 462.965
lclavicle -3.65764e-014 1.90833e-014
lhumerus -6.56705 22.6042 4.32046
lradius 22.5922
lwrist 31.4111
lhand -32.1428 -13.7862
lfingers 7.12502
lthumb -5.38656 16.1253
rfemur -34.6137 0.279876 33.0682
rtibia 58.3543
rfoot -1.45516 -22.2551
rtoes 26.5063
lfemur -4.81563 37.9981 -12.4903
ltibia 100.063
lfoot 5.22995 -5.73329
ltoes 1.41193
